<?xml version="1.0" standalone="no"?>
<!DOCTYPE svg PUBLIC "-//W3C//DTD SVG 20010904//EN"
 "http://www.w3.org/TR/2001/REC-SVG-20010904/DTD/svg10.dtd">
<svg version="1.0" xmlns="http://www.w3.org/2000/svg"
 width="360.000000pt" height="360.000000pt" viewBox="0 0 360.000000 360.000000"
 preserveAspectRatio="xMidYMid meet">
<metadata>
Created by potrace 1.14, written by Peter Selinger 2001-2017
</metadata>
<g transform="translate(0.000000,360.000000) scale(0.100000,-0.100000)"
fill="#000000" stroke="none">
<path d="M2427 3574 c-417 -86 -823 -308 -1006 -549 -120 -158 -192 -395 -195
-645 -1 -123 8 -245 23 -298 5 -18 8 -32 6 -32 -6 0 49 -157 80 -230 32 -74
52 -143 63 -215 12 -80 7 -344 -7 -410 -71 -323 -245 -511 -463 -499 l-49 2
38 -30 c105 -84 263 -175 393 -226 81 -32 254 -77 335 -87 58 -8 268 -8 293
-1 9 3 40 7 67 11 109 13 229 52 360 115 328 158 602 463 748 835 36 91 83
243 92 299 13 74 18 102 22 121 3 11 7 97 9 190 5 256 -34 442 -141 660 -78
162 -160 272 -338 455 -82 84 -121 133 -144 180 -69 141 -79 264 -28 341 l25
39 -32 -1 c-18 0 -86 -11 -151 -25z m-210 -159 c2 -67 52 -166 115 -227 59
-57 112 -85 185 -95 47 -7 48 -7 15 -14 -117 -24 -261 56 -339 188 -35 60 -40
156 -9 179 29 21 31 19 33 -31z m-112 -386 c33 -16 39 -28 25 -49 -7 -12 -14
-12 -43 -2 -92 33 -173 -14 -195 -114 -14 -65 20 -142 65 -144 6 0 14 -4 18
-9 9 -15 -60 -5 -88 13 -32 22 -59 88 -58 145 0 51 34 126 64 144 66 37 154
44 212 16z m-77 -917 c160 -61 266 -176 328 -357 24 -69 28 -98 30 -215 8
-386 -141 -670 -431 -822 -47 -24 -165 -65 -210 -73 -125 -21 -272 -21 -338
-1 -64 19 -111 53 -124 87 -17 43 1 49 60 20 48 -24 62 -26 182 -26 262 1 471
94 616 275 50 62 109 182 125 255 21 97 24 122 24 230 1 115 -3 146 -26 224
-74 254 -297 377 -529 290 -121 -45 -199 -158 -205 -299 0 -11 -3 -11 -11 3
-11 20 -6 108 10 162 38 133 130 225 261 260 62 17 175 11 238 -13z m77 -493
c-4 -5 -9 -25 -12 -42 -16 -107 -104 -300 -181 -396 -106 -131 -190 -175 -335
-173 -76 1 -104 7 -129 29 -25 22 -3 62 45 83 31 14 45 15 77 6 120 -32 324
115 442 319 21 36 50 96 71 148 9 20 19 37 22 37 3 0 3 -5 0 -11z m68 -219
c-4 -126 -48 -271 -110 -365 -15 -22 -55 -68 -88 -101 -67 -67 -171 -124 -258
-142 -71 -14 -174 -7 -237 18 -67 26 -90 46 -90 76 0 32 48 44 120 29 246 -51
490 118 597 414 24 64 44 144 49 191 5 53 7 53 13 0 4 -30 5 -84 4 -120z"/>
<path d="M743 1525 c-100 -50 -196 -181 -208 -285 -15 -122 85 -319 239 -469
l55 -54 -13 44 c-25 84 -9 176 42 245 68 91 81 138 77 277 -3 99 -34 214 -64
241 -32 29 -72 29 -128 1z"/>
<path d="M233 1089 c-36 -13 -46 -45 -40 -128 10 -158 101 -269 246 -300 98
-21 298 -3 385 35 l31 13 -31 1 c-32 0 -114 47 -146 83 -11 12 -31 47 -44 77
-33 71 -90 122 -189 170 -70 34 -97 42 -175 55 -8 1 -25 -1 -37 -6z"/>
<path d="M2538 536 c-27 -12 -49 -30 -53 -41 -3 -11 -8 -80 -12 -152 -6 -138
0 -159 31 -110 17 25 89 292 84 311 -2 9 -15 7 -50 -8z"/>
<path d="M2125 363 c-46 -4 -69 -14 -71 -31 0 -6 -7 -51 -20 -132 -11 -73 -15
-190 -6 -190 5 0 40 70 76 155 59 140 84 208 75 203 -2 -1 -26 -3 -54 -5z"/>
</g>
</svg>
