<?xml version="1.0" encoding="utf-8"?>
<!-- Generator: Adobe Illustrator 25.0.1, SVG Export Plug-In . SVG Version: 6.00 Build 0)  -->
<svg version="1.1" id="Capa_1" xmlns="http://www.w3.org/2000/svg" xmlns:xlink="http://www.w3.org/1999/xlink" x="0px" y="0px"
	 viewBox="0 0 139.84 139.42" style="enable-background:new 0 0 139.84 139.42;" xml:space="preserve">
<style type="text/css">
	.st0{fill:#396EB5;}
	.st1{fill:#FFFFFF;}
</style>
<g>
	<path class="st0" d="M136.52,69.78c0-37.28-30.22-67.5-67.5-67.5S1.52,32.5,1.52,69.78c0,33.69,24.68,61.62,56.95,66.68V89.3H41.34
		V69.78h17.14V54.91c0-16.92,10.08-26.26,25.5-26.26c7.39,0,15.11,1.32,15.11,1.32v16.61h-8.51c-8.38,0-11,5.2-11,10.54v12.66h18.72
		L95.3,89.3H79.57v47.17C111.84,131.4,136.52,103.47,136.52,69.78z"/>
	<path class="st1" d="M95.3,89.3l2.99-19.51H79.57V57.12c0-5.34,2.62-10.54,11-10.54h8.51V29.97c0,0-7.72-1.32-15.11-1.32
		c-15.42,0-25.5,9.34-25.5,26.26v14.87H41.34V89.3h17.14v47.17c3.44,0.54,6.96,0.82,10.55,0.82c3.59,0,7.11-0.28,10.55-0.82V89.3
		H95.3z"/>
</g>
</svg>
